<svg width="36" height="36" viewBox="0 0 36 36" fill="none" xmlns="http://www.w3.org/2000/svg">
<path d="M18.2303 0.25708C19.3939 0.25708 20.6869 0.25708 21.8505 0.642794L18.2303 7.71422C12.8 7.32851 8.01616 11.6999 7.62828 17.3571C7.3697 23.0142 11.5071 27.8999 17.0667 28.1571H18.2303C20.6869 28.1571 23.0141 27.2571 24.8242 25.7142L28.703 32.5285C25.7293 34.7142 22.1091 35.9999 18.101 35.9999C8.53333 36.2571 0.387879 28.9285 -2.29571e-07 18.8999C-0.258586 8.99994 6.98182 0.642794 16.6788 0.25708H18.2303Z" fill="#1D1D1B"/>
<path d="M22.1091 15.5571L17.5838 23.2714H26.3757L30.5131 30.7286L35.0384 23.2714L30.5131 15.5571H22.1091Z" fill="#1D1D1B"/>
<path d="M23.2727 12.7284C23.2727 11.4427 23.5313 10.2856 24.1778 9.25701C24.8243 8.35701 25.9879 7.32844 26.8929 6.81415L27.5394 6.42844C28.703 5.78558 29.0909 5.52844 29.0909 4.88558C29.0909 4.24272 28.1859 3.59987 27.5394 3.59987C26.3758 3.59987 25.3414 4.24272 24.8243 5.52844L23.2727 4.11415C23.5313 3.4713 24.1778 2.82844 24.8243 2.18558C25.7293 1.54272 26.6344 1.54272 27.5394 1.54272C28.4445 1.54272 29.7374 1.92844 30.2546 2.44272C30.7717 3.08558 31.4182 3.98558 31.4182 4.88558C31.4182 6.42844 30.5131 7.71415 28.703 8.35701L27.798 8.99987C26.8929 9.64272 26.2465 9.89987 25.9879 10.9284H31.4182V13.1142C31.4182 12.9856 23.2727 12.7284 23.2727 12.7284Z" fill="#1D1D1B"/>
</svg>
