<svg width="90" height="21" viewBox="0 0 90 21" fill="none" xmlns="http://www.w3.org/2000/svg">
<g clip-path="url(#clip0_1_353)">
<path d="M0 0.228516H3.52691V20.6073H0V0.228516Z" fill="#221F1F"/>
<path d="M9.55813 20.0261C8.44383 19.3755 7.5621 18.4823 6.91295 17.3501C6.26034 16.2179 5.9375 14.9718 5.9375 13.6155C5.9375 12.2554 6.26381 11.013 6.91295 9.88082C7.5621 8.74867 8.44383 7.85912 9.55813 7.20482C10.6724 6.5542 11.8805 6.22705 13.1788 6.22705C14.4805 6.22705 15.6851 6.5542 16.7994 7.20482C17.9137 7.85544 18.7954 8.74867 19.4446 9.88082C20.0937 11.013 20.42 12.2591 20.42 13.6155C20.42 14.9755 20.0937 16.2179 19.4446 17.3501C18.792 18.4823 17.9102 19.3755 16.7994 20.0261C15.6851 20.6767 14.4771 21.0039 13.1788 21.0039C11.877 21.0002 10.669 20.6767 9.55813 20.0261ZM15.0359 17.0524C15.5983 16.7215 16.0461 16.2547 16.3863 15.6519C16.723 15.049 16.8931 14.369 16.8931 13.6155C16.8931 12.8619 16.723 12.1819 16.3863 11.5791C16.0461 10.9762 15.5983 10.5094 15.0359 10.1786C14.4736 9.84774 13.8557 9.68233 13.1788 9.68233C12.5018 9.68233 11.8839 9.84774 11.3216 10.1786C10.7592 10.5094 10.3114 10.9762 9.97122 11.5791C9.63103 12.1819 9.46441 12.8619 9.46441 13.6155C9.46441 14.369 9.6345 15.049 9.97122 15.6519C10.3079 16.2547 10.7592 16.7215 11.3216 17.0524C11.8839 17.3832 12.5018 17.5486 13.1788 17.5486C13.8557 17.5486 14.4736 17.3832 15.0359 17.0524Z" fill="#221F1F"/>
<path d="M22.8301 0.228516H26.357V12.3698L30.9531 6.62445H35.1499L29.9637 13.1049L35.5249 20.6036H31.0086L26.357 14.1231V20.6036H22.8301V0.228516Z" fill="#221F1F"/>
<path d="M38.8505 20.0957C37.8612 19.4929 37.0593 18.6291 36.4449 17.5079C35.8304 16.3868 35.5215 15.0892 35.5215 13.6152C35.5215 12.2772 35.8166 11.0385 36.4032 9.90632C36.9899 8.77417 37.7918 7.87727 38.8089 7.21562C39.826 6.55397 40.9368 6.22314 42.1483 6.22314C43.0023 6.22314 43.7833 6.37385 44.488 6.67527C45.1927 6.97669 45.7308 7.38103 46.1057 7.89197V6.62013H49.6326V20.603H46.1057V19.3311C45.5537 19.8788 44.9636 20.2942 44.3422 20.5772C43.7208 20.8603 42.9155 21.0036 41.9366 21.0036C40.8674 21 39.8399 20.6985 38.8505 20.0957ZM45.2795 16.4162C45.939 15.6627 46.2688 14.729 46.2688 13.6152C46.2688 12.5015 45.939 11.5678 45.2795 10.8143C44.6199 10.0607 43.7451 9.68211 42.6586 9.68211C41.5721 9.68211 40.6973 10.0607 40.0377 10.8143C39.3782 11.5678 39.0484 12.5051 39.0484 13.6152C39.0484 14.729 39.3782 15.6627 40.0377 16.4162C40.6973 17.1698 41.5686 17.5484 42.6586 17.5484C43.7451 17.5484 44.6199 17.1698 45.2795 16.4162Z" fill="#221F1F"/>
<path d="M52.7363 0.228516H56.2632V20.6073H52.7363V0.228516Z" fill="#221F1F"/>
<path d="M59.5504 4.01745C59.1234 3.56532 58.9082 3.01762 58.9082 2.37435C58.9082 1.71271 59.1234 1.15398 59.5504 0.690825C59.9774 0.227671 60.4946 -0.00390625 61.1021 -0.00390625C61.727 -0.00390625 62.2546 0.227671 62.692 0.690825C63.1294 1.15398 63.3481 1.71638 63.3481 2.37435C63.3481 3.01762 63.1294 3.56165 62.692 4.01745C62.2546 4.46957 61.7235 4.69748 61.1021 4.69748C60.4946 4.69748 59.9809 4.47325 59.5504 4.01745ZM59.363 6.62361H62.8899V20.6065H59.363V6.62361Z" fill="#221F1F"/>
<path d="M65.2988 19.6438L66.1007 16.1334H66.2604C67.4198 17.0781 68.6036 17.5486 69.8151 17.5486C70.3149 17.5486 70.7176 17.4494 71.0301 17.2509C71.3425 17.0524 71.4987 16.7656 71.4987 16.387C71.4987 15.99 71.3147 15.6702 70.9502 15.424C70.5857 15.1777 69.9019 14.8763 68.9056 14.5197C67.8885 14.1632 67.1005 13.6412 66.5416 12.9612C65.9827 12.2811 65.698 11.4798 65.698 10.5572C65.698 9.25593 66.1563 8.20832 67.0762 7.41434C67.9926 6.62036 69.1555 6.22705 70.5649 6.22705C71.2765 6.22705 71.9118 6.29689 72.4637 6.44025C73.0157 6.58361 73.5398 6.81151 74.0397 7.13498L74.1716 10.7005H73.9842C73.342 10.2668 72.7727 9.93964 72.2728 9.72276C71.7729 9.50589 71.214 9.39561 70.5892 9.39561C70.1449 9.39561 69.7769 9.49118 69.4922 9.67865C69.2076 9.86612 69.0653 10.1124 69.0653 10.4138C69.0653 10.8108 69.2423 11.1343 69.5999 11.3916C69.9574 11.6452 70.6239 11.954 71.6063 12.3105C72.7276 12.7075 73.578 13.1891 74.1578 13.7551C74.7375 14.3212 75.0256 15.1997 75.0256 16.387C75.0256 17.3685 74.793 18.2066 74.3313 18.905C73.8662 19.6034 73.2587 20.1254 72.5019 20.4746C71.7452 20.8238 70.912 20.9965 70.0025 20.9965C68.1662 21.0002 66.5971 20.5481 65.2988 19.6438Z" fill="#221F1F"/>
<path d="M80.0019 20.0114C78.898 19.3498 78.0267 18.4492 77.3949 17.3097C76.7632 16.1665 76.4473 14.8983 76.4473 13.5015C76.4473 12.1415 76.7458 10.9101 77.3429 9.80731C77.94 8.70456 78.7696 7.82971 79.8284 7.19012C80.8871 6.55052 82.0882 6.22705 83.4247 6.22705C84.7785 6.22705 85.9519 6.56155 86.9377 7.23055C87.9271 7.89955 88.6734 8.79278 89.1837 9.90655C89.6905 11.0203 89.9474 12.2186 89.9474 13.5015V14.6043H79.818C80.0332 15.6629 80.4914 16.4642 81.1961 17.0083C81.9008 17.5559 82.8311 17.828 83.9905 17.828C85.754 17.828 87.2953 17.2141 88.6144 15.99H88.9893L88.8574 19.5262C88.0555 20.0188 87.2085 20.3863 86.3163 20.6289C85.4242 20.8752 84.5703 20.9965 83.751 20.9965C82.3521 21.0002 81.1058 20.673 80.0019 20.0114ZM86.417 12.0569C86.3268 11.2078 85.9935 10.5425 85.4138 10.0609C84.8341 9.5794 84.1259 9.34048 83.2893 9.34048C82.4701 9.34048 81.7515 9.57205 81.1371 10.0352C80.5226 10.4984 80.1096 11.171 79.8943 12.0606H86.417V12.0569Z" fill="#221F1F"/>
</g>
<defs>
<clipPath id="clip0_1_353">
<rect width="90" height="21" fill="white"/>
</clipPath>
</defs>
</svg>
