<svg width="80" height="32" viewBox="0 0 80 32" fill="none" xmlns="http://www.w3.org/2000/svg">
<path d="M12.8151 5.95538C12.5443 5.71906 12.2736 5.71906 11.9577 6.00263C10.4687 6.56983 7.6712 8.55506 6.99438 8.4133C8.12243 6.80621 9.34069 5.24637 10.7395 3.82835C11.326 2.97753 10.5589 2.78847 10.4687 2.31579C10.2882 1.70131 10.3785 1.03958 10.5589 0.472365C10.8297 -0.000308482 10.2882 -0.0948433 9.97238 0.0942261C6.31756 4.06468 3.2042 8.03517 0.316438 12.0529C-0.134775 12.6673 -0.044532 13.14 0.271317 13.5182L1.80544 15.5506C2.12129 16.1179 2.61762 16.2124 3.24932 15.787L8.07731 12.3838C6.1371 15.6924 4.28711 19.4266 2.88835 23.9642C2.25665 25.9022 4.01638 28.8328 6.40782 31.9051C6.67854 32.236 7.21997 31.9051 6.859 31.2434C4.55784 26.753 6.45295 19.8047 13.8528 9.5477C14.2138 9.12231 14.3492 8.69687 14.0784 8.27149L12.8151 5.95538Z" fill="#1D1D1B"/>
<path d="M31.8559 11.8637L32.4876 9.3113C32.623 8.93316 32.8937 8.7441 33.2547 8.69684H35.4205H36.0522L36.4131 7.51514H35.4656L32.4876 7.56239C31.8559 7.51514 31.3596 7.75151 31.0438 8.50778L29.4193 15.1252L28.7877 17.7249C28.6072 18.2921 28.7425 18.7648 29.4193 18.9539C29.4645 18.9539 29.5547 19.0011 29.5999 19.0011H33.39L33.7059 17.8195H30.8181C30.5925 17.6303 30.412 17.6303 30.5023 17.0631L31.1791 14.2744C31.2694 13.9435 31.4498 13.7072 31.7657 13.7072H33.9766L34.2925 12.7146H32.0364C31.7657 12.5255 31.7205 12.2419 31.8559 11.8637Z" fill="#1D1D1B"/>
<path d="M36.3228 17.0635C37.8118 10.966 36.9093 14.6056 38.263 9.31159C38.3984 8.93346 38.6691 8.74439 39.03 8.69714H41.0605H41.7825L42.0532 7.7518L42.1434 7.46818H42.0532H41.0605H38.2179C37.5862 7.42092 37.0447 7.65724 36.774 8.41351L35.4204 13.9438L34.5179 17.5834C34.3374 18.2451 34.4728 18.7178 35.3301 18.8596H35.3752H39.1203L39.4361 17.6779H36.5484C36.413 17.6779 36.2325 17.6307 36.3228 17.0635Z" fill="#1D1D1B"/>
<path d="M21.7942 13.471L19.6284 11.4858C19.1772 10.9186 19.6284 8.79152 20.5759 8.74426H22.9673H23.7795L24.0503 7.60986H22.9673H19.9893C18.7259 7.84618 17.6881 10.5877 18.1845 11.9111L20.3954 13.9909C20.7113 14.3691 20.7564 14.6999 20.7564 15.0781L20.1247 17.3469C19.9893 17.9141 19.6284 17.9141 19.1772 17.9141H16.1992L15.9284 19.0013H20.3052C20.982 18.954 21.3881 18.5286 21.4784 17.8196L22.2003 14.9363C22.3808 14.2746 22.1552 13.8019 21.7942 13.471Z" fill="#1D1D1B"/>
<path d="M29.1034 13.14L29.4192 11.7693L30.096 8.88597C30.1863 8.1297 29.9607 7.70431 29.4192 7.60975C29.329 7.5625 29.2387 7.5625 29.1485 7.5625H24.8619L23.012 14.7944L21.9291 19.0012H23.012H23.4181L26.0803 8.74415H27.8399C28.2009 8.83871 28.4266 9.02778 28.4266 9.40591L27.7046 12.5255C27.6144 13.0455 27.2985 13.3764 26.7571 13.5654L25.4034 13.8491L25.1778 14.9362L28.1107 14.369C28.607 14.2272 29.0131 13.8491 29.1034 13.14Z" fill="#1D1D1B"/>
<path d="M44.7157 7.5625H42.9559L42.0535 11.013L41.0608 14.8416L39.9779 19.0012H41.0608H41.7376L42.0535 17.725L44.7157 7.5625Z" fill="#1D1D1B"/>
<path d="M60.3277 7.5625H59.2446H58.6128L55.5897 19.0012H57.3497L59.2446 11.8166L60.3277 7.5625Z" fill="#1D1D1B"/>
<path d="M68.0431 14.2747C68.1333 13.9438 68.3139 13.7075 68.6297 13.7075H70.8405L71.1564 12.7148H68.8554C68.5846 12.5258 68.5395 12.2422 68.6749 11.8641L69.3518 9.31159C69.4872 8.93346 69.7574 8.74439 70.1185 8.69714H72.1041H72.9164L73.1415 7.94087L73.2769 7.46818H73.1415H72.1492H69.3969C68.7651 7.42092 68.2236 7.65724 67.9528 8.41351L66.3282 15.031L65.6969 17.6307C65.5164 18.1979 65.6518 18.6706 66.3282 18.8596C66.3733 18.8596 66.4636 18.9069 66.5087 18.9069H70.299L70.6149 17.7252H67.6821C67.4564 17.5361 67.2759 17.5361 67.3662 16.9689L68.0431 14.2747Z" fill="#1D1D1B"/>
<path d="M79.1436 7.5625H73.9543L73.0974 10.7767L72.1046 14.6053L70.9764 18.9539H72.1046H73.0974H76.2559C77.0225 18.9067 77.4738 18.4813 77.6543 17.6777L80.001 8.55509C80.0912 7.98789 79.7754 7.60975 79.1436 7.5625ZM78.1056 9.64223L76.1656 16.7324C76.1205 17.2996 75.7595 17.6777 75.0374 17.725H73.1877C73.1425 17.725 73.0974 17.725 73.0523 17.6777C72.8718 17.5832 72.8718 17.3468 72.962 17.1105L73.0523 16.7796L75.3533 8.60239H77.6092C78.1959 8.64965 78.2861 9.02778 78.1056 9.64223Z" fill="#1D1D1B"/>
<path d="M60.6882 16.9215L66.2379 9.50053L66.6441 8.93333C67.1405 8.17706 66.96 7.60986 66.2379 7.60986C66.2379 7.60986 66.2379 7.60986 66.1928 7.60986H61.1394L61.0943 8.6497H64.2076C64.6138 8.6497 64.8394 8.83877 64.5687 9.2169L59.2441 16.5434L58.342 17.7723C57.981 18.3395 58.1164 18.765 58.7482 19.0485H59.2441H64.2528L64.5687 17.7723H60.7784C60.4174 17.6778 60.3723 17.2051 60.6882 16.9215Z" fill="#1D1D1B"/>
<path d="M47.7837 7.60975L42.0533 18.8594L41.9631 19.0485H42.0533H43.3167L47.8289 10.0677L48.2349 10.1149L48.4606 12.6201C48.641 13.2346 48.2349 13.1873 48.0996 13.1873H46.8362L46.6106 14.1326L48.0996 14.1799C48.3703 14.2272 48.5057 14.369 48.4606 14.6526L48.7313 18.9067H50.2654L49.6337 7.5625L47.7837 7.60975Z" fill="#1D1D1B"/>
<path d="M52.6118 16.9214L55.0482 7.5625H53.2887L50.6716 17.6304C50.6265 18.1976 50.8521 18.8121 51.5738 19.0012H55.0482L55.4092 17.7723L52.9277 17.725C52.6118 17.6777 52.4764 17.3941 52.6118 16.9214Z" fill="#1D1D1B"/>
</svg>
